<?xml version="1.0" encoding="UTF-8" standalone="no"?><!DOCTYPE svg PUBLIC "-//W3C//DTD SVG 1.1//EN" "http://www.w3.org/Graphics/SVG/1.1/DTD/svg11.dtd"><svg width="100%" height="100%" viewBox="0 0 24 24" version="1.1" xmlns="http://www.w3.org/2000/svg" xmlns:xlink="http://www.w3.org/1999/xlink" xml:space="preserve" xmlns:serif="http://www.serif.com/" style="fill-rule:evenodd;clip-rule:evenodd;stroke-linejoin:round;stroke-miterlimit:2;"><g><rect x="1.183" y="17.535" width="5.409" height="5.409" style="fill:#e6e6e6;"/><rect x="12" y="17.535" width="5.409" height="5.409" style="fill:#e6e6e6;"/><rect x="12" y="6.718" width="5.409" height="5.409" style="fill:#e6e6e6;"/><rect x="1.183" y="6.718" width="5.409" height="5.409" style="fill:#e6e6e6;"/><rect x="6.591" y="6.718" width="5.409" height="5.409" style="fill:#e45454;"/><rect x="1.183" y="12.127" width="5.409" height="5.409" style="fill:#e45454;"/><rect x="12" y="12.127" width="5.409" height="5.409" style="fill:#e45454;"/><rect x="6.591" y="17.535" width="5.409" height="5.409" style="fill:#e45454;"/><rect x="17.409" y="6.718" width="5.409" height="5.409" style="fill:#e45454;"/><rect x="17.409" y="17.535" width="5.409" height="5.409" style="fill:#e45454;"/><rect x="6.591" y="12.127" width="5.409" height="5.409" style="fill:#e6e6e6;"/><rect x="17.409" y="12.127" width="5.409" height="5.409" style="fill:#e6e6e6;"/><rect x="1.183" y="1.321" width="5.409" height="5.409" style="fill:#e45454;"/><rect x="12" y="1.321" width="5.409" height="5.409" style="fill:#e45454;"/><rect x="6.591" y="1.321" width="5.409" height="5.409" style="fill:#e6e6e6;"/><rect x="17.409" y="1.321" width="5.409" height="5.409" style="fill:#e6e6e6;"/></g></svg>