<?xml version="1.0" encoding="UTF-8" standalone="no"?><!DOCTYPE svg PUBLIC "-//W3C//DTD SVG 1.1//EN" "http://www.w3.org/Graphics/SVG/1.1/DTD/svg11.dtd"><svg width="100px" height="100px" version="1.1" xmlns="http://www.w3.org/2000/svg" xmlns:xlink="http://www.w3.org/1999/xlink" xml:space="preserve" xmlns:serif="http://www.serif.com/" style="fill-rule:evenodd;clip-rule:evenodd;stroke-linecap:round;stroke-linejoin:bevel;stroke-miterlimit:1.5;"><g id="Exprted" transform="matrix(0.103304,0,0,0.103304,-1.652066,-1.652066)"><g id="Image_Plus" transform="matrix(1,0,0,1,-18.971804,37.853895)"><g transform="matrix(1,0,0,1,18.971804,-32.626858)"><circle cx="372.077" cy="362.837" r="91.065" style="fill:none;stroke:#e6e6e6;stroke-width:80.67px;"/></g><g transform="matrix(0.96345,0,0,0.988252,26.52176,-22.390886)"><path d="M906.613,392.755l0,407.225c0,46.732 -39.38,84.673 -87.885,84.673l-615.193,0c-48.505,0 -87.885,-37.94 -87.885,-84.673l0,-599.646c0,-46.732 39.38,-84.673 87.885,-84.673l339.617,0" style="fill:none;stroke:#e6e6e6;stroke-width:82.66px;"/></g><g transform="matrix(1,0,0,1,18.971804,-32.626858)"><path d="M247.894,884.496c2.815,-2.991 322.748,-330.821 373.996,-384.417c78.644,-82.248 98.062,-57.2 183.518,41.341l75.619,85.193" style="fill:none;stroke:#e6e6e6;stroke-width:80.67px;"/></g><g transform="matrix(1.222065,0,0,1.222065,-176.673139,-56.785242)"><g transform="matrix(0.909707,0,0,0.914497,75.10201,-34.664726)"><path d="M676.323,222.016l209.593,0" style="fill:none;stroke:#e6e6e6;stroke-width:72.37px;"/></g><g transform="matrix(0.909707,0,0,0.914497,82.334179,-39.291324)"><path d="M773.17,120.833l0,212.484" style="fill:none;stroke:#e6e6e6;stroke-width:72.37px;"/></g></g></g></g></svg>